<svg width="267" height="267" viewBox="0 0 267 267" fill="none" xmlns="http://www.w3.org/2000/svg">
<path d="M255.265 80.376C250.27 68.9577 243.66 58.3168 235.636 48.7797C223.775 34.2606 208.973 22.4174 192.204 14.0297C175.435 5.6422 157.078 0.900311 138.344 0.116194C119.611 -0.667923 100.923 2.52349 83.5108 9.48056C66.0995 16.4375 50.359 27.0023 37.3256 40.4796C24.2921 53.9568 14.2612 70.041 7.89306 87.6735C1.52492 105.306 -1.03618 124.087 0.378482 142.78C1.79324 161.473 7.15148 179.655 16.1007 196.128C25.05 212.602 37.3874 226.994 52.3007 238.357C61.8699 245.794 72.4435 251.84 83.7071 256.314C99.4986 262.784 116.4 266.117 133.467 266.127C168.695 266.049 202.455 252.009 227.347 227.086C252.239 202.162 266.232 168.388 266.257 133.167C266.283 114.999 262.54 97.0239 255.265 80.376ZM133.369 27.094C148.695 27.0924 163.836 30.4414 177.73 36.9065C174.342 38.3702 170.779 39.3926 167.13 39.9485C155.123 41.6862 144.001 47.2595 135.422 55.8366C126.843 64.4136 121.268 75.5345 119.53 87.5391C118.767 94.2715 115.704 100.535 110.859 105.272C106.014 110.01 99.6821 112.93 92.9327 113.542C80.9256 115.28 69.8025 120.854 61.2238 129.431C52.645 138.008 47.0705 149.128 45.3324 161.133C44.7439 167.535 42.0121 173.551 37.5789 178.207C29.93 162.048 26.4939 144.217 27.5904 126.374C28.6869 108.531 34.2803 91.2551 43.8501 76.1536C53.4199 61.0531 66.6551 48.6179 82.3242 40.0058C97.9931 31.3936 115.587 26.8845 133.467 26.8977L133.369 27.094ZM52.2026 201.855C53.3803 200.775 54.558 199.794 55.7358 198.617C64.4673 190.153 70.0719 178.981 71.6353 166.922C72.2691 160.144 75.296 153.813 80.1738 149.063C84.8681 144.179 91.1857 141.177 97.9381 140.625C109.945 138.887 121.068 133.313 129.647 124.736C138.226 116.159 143.8 105.039 145.539 93.0341C145.963 85.9446 149.006 79.2652 154.077 74.2922C158.887 69.5022 165.265 66.61 172.038 66.1477C183.068 64.6304 193.356 59.7276 201.481 52.116C210.733 59.79 218.571 69.0218 224.644 79.3947C224.271 79.8981 223.843 80.3593 223.368 80.7685C218.683 85.6963 212.373 88.7637 205.603 89.4035C193.584 91.1108 182.444 96.6745 173.859 105.257C165.276 113.84 159.711 124.977 158.003 136.994C157.311 143.749 154.305 150.057 149.494 154.85C144.682 159.643 138.361 162.625 131.602 163.292C119.559 165.016 108.395 170.578 99.7666 179.152C91.1386 187.726 85.5061 198.853 83.7071 210.882C83.179 215.678 81.5312 220.283 78.898 224.325C68.8283 218.348 59.8097 210.757 52.2026 201.855ZM133.369 239.731C123.41 239.742 113.498 238.354 103.925 235.61C107.2 229.506 109.329 222.854 110.206 215.985C110.894 209.245 113.887 202.948 118.678 198.157C123.47 193.367 129.768 190.375 136.509 189.687C148.534 187.969 159.679 182.404 168.278 173.825C176.875 165.247 182.465 154.115 184.208 142.097C184.896 135.356 187.888 129.06 192.68 124.269C197.471 119.479 203.769 116.487 210.511 115.799C219.56 114.623 228.185 111.254 235.636 105.987C239.774 121.666 240.263 138.084 237.069 153.982C233.874 169.881 227.079 184.837 217.205 197.702C207.332 210.566 194.642 221 180.109 228.2C165.577 235.401 149.588 239.178 133.369 239.24V239.731Z" fill="#2C75BE"/>
</svg>
