<svg width="349" height="157" viewBox="0 0 349 157" fill="none" xmlns="http://www.w3.org/2000/svg">
<path d="M151.368 126.742C140.034 147.172 116.957 156.892 93.6226 156.892H0C97.4615 144.689 165.337 95.8783 174.038 27.8918C182.74 95.8783 250.615 144.689 348.077 156.892H254.454C231.12 156.892 208.043 147.172 196.709 126.742C184.441 104.629 176.625 79.6083 174.038 52.2973C171.452 79.6083 163.636 104.629 151.368 126.742Z" fill="#1A4688"/>
<path d="M97.8273 119.521C92.3601 122.604 86.6091 125.5 80.5874 128.198C77.1669 116.363 75.9082 103.945 76.9121 91.5761C78.24 75.2122 83.4865 59.4362 92.1871 45.6461C100.888 31.856 112.774 20.4768 126.792 12.5168C140.811 4.55677 156.529 0.26152 172.555 0.0115736C188.581 -0.238407 204.419 3.56462 218.668 11.0837C232.916 18.6028 245.135 29.6059 254.241 43.1184C263.347 56.631 269.06 72.2358 270.874 88.5505C272.357 101.895 271.195 115.378 267.489 128.198C261.468 125.5 255.717 122.604 250.249 119.521C252.554 110.149 253.2 100.398 252.127 90.7379C250.664 77.5817 246.057 64.9979 238.714 54.1016C231.371 43.2052 221.517 34.3321 210.027 28.2688C198.537 22.2053 185.765 19.1386 172.842 19.3402C159.919 19.5417 147.243 23.0054 135.939 29.4242C124.635 35.8432 115.05 45.0193 108.034 56.1398C101.017 67.2603 96.7866 79.9818 95.7159 93.1778C94.9961 102.047 95.7187 110.948 97.8273 119.521Z" fill="#7FB5E6"/>
</svg>
